
<svg width="110" height="110" viewBox="0 0 110 110" fill="grey" xmlns="http://www.w3.org/2000/svg">
<g clip-path="url(#clip0_73_9)">
<path  fill-rule="evenodd" clip-rule="evenodd" d="M30.2913 9.22625C37.1627 3.30093 45.9267 0.0284523 55 0C73.4938 0 88.8456 13.75 90.5163 31.4806C101.461 33.0275 110 42.1919 110 53.4394C110 65.7869 99.7013 75.625 87.2231 75.625H68.75C67.8383 75.625 66.964 75.2628 66.3193 74.6182C65.6747 73.9735 65.3125 73.0992 65.3125 72.1875C65.3125 71.2758 65.6747 70.4015 66.3193 69.7568C66.964 69.1122 67.8383 68.75 68.75 68.75H87.23C96.1056 68.75 103.125 61.7925 103.125 53.4394C103.125 45.0794 96.1125 38.1219 87.2231 38.1219H83.7856V34.6844C83.7925 19.4219 71.005 6.875 55 6.875C47.5741 6.90466 40.4033 9.58673 34.7806 14.4375C29.5762 18.92 26.8537 24.3238 26.8537 28.5656V31.6456L23.7944 31.9825C14.19 33.0344 6.875 40.92 6.875 50.3112C6.875 60.3969 15.3312 68.75 25.9944 68.75H41.25C42.1617 68.75 43.036 69.1122 43.6807 69.7568C44.3253 70.4015 44.6875 71.2758 44.6875 72.1875C44.6875 73.0992 44.3253 73.9735 43.6807 74.6182C43.036 75.2628 42.1617 75.625 41.25 75.625H25.9944C11.7425 75.625 0 64.3912 0 50.3112C0 38.1906 8.70375 28.1531 20.2262 25.6094C21.2094 19.6762 25.025 13.7638 30.2913 9.22625V9.22625Z" fill="grey"/>
<path   fill-rule="evenodd" clip-rule="evenodd" d="M52.5662 28.5038C52.8855 28.1837 53.2648 27.9297 53.6825 27.7564C54.1001 27.5831 54.5478 27.4939 55 27.4939C55.4521 27.4939 55.8998 27.5831 56.3174 27.7564C56.7351 27.9297 57.1144 28.1837 57.4337 28.5038L78.0587 49.1288C78.7042 49.7743 79.0668 50.6497 79.0668 51.5625C79.0668 52.4754 78.7042 53.3508 78.0587 53.9963C77.4132 54.6418 76.5378 55.0044 75.625 55.0044C74.7121 55.0044 73.8367 54.6418 73.1912 53.9963L58.4375 39.2357V99.6875C58.4375 100.599 58.0753 101.474 57.4306 102.118C56.786 102.763 55.9116 103.125 55 103.125C54.0883 103.125 53.2139 102.763 52.5693 102.118C51.9246 101.474 51.5625 100.599 51.5625 99.6875V39.2357L36.8087 53.9963C36.1632 54.6418 35.2878 55.0044 34.3749 55.0044C33.4621 55.0044 32.5867 54.6418 31.9412 53.9963C31.2957 53.3508 30.9331 52.4754 30.9331 51.5625C30.9331 50.6497 31.2957 49.7743 31.9412 49.1288L52.5662 28.5038Z" fill="grey"/>
</g>
<defs>
<clipPath id="clip0_73_9">
<rect width="110" height="110" fill="white"/>
</clipPath>
</defs>
</svg>
